<?xml version="1.0" encoding="UTF-8"?>
<svg width="400" height="300" viewBox="0 0 400 300" fill="none" xmlns="http://www.w3.org/2000/svg">
  <!-- Background elements -->
  <rect width="400" height="300" fill="#111827" opacity="0.1"/>
  <circle cx="200" cy="150" r="120" fill="#1E293B" opacity="0.3"/>
  
  <!-- Calculator -->
  <rect x="120" y="80" width="160" height="180" rx="10" fill="#1E293B"/>
  <rect x="130" y="90" width="140" height="40" rx="5" fill="#0F172A"/>
  
  <!-- Calculator display -->
  <rect x="140" y="100" width="120" height="20" rx="2" fill="#334155"/>
  <text x="250" y="115" font-family="monospace" font-size="14" fill="#A855F7">12345</text>
  
  <!-- Calculator buttons -->
  <g>
    <!-- Row 1 -->
    <rect x="140" y="140" width="25" height="25" rx="3" fill="#334155"/>
    <text x="147" y="157" font-family="monospace" font-size="14" fill="#F8FAFC">C</text>
    
    <rect x="175" y="140" width="25" height="25" rx="3" fill="#334155"/>
    <text x="182" y="157" font-family="monospace" font-size="14" fill="#F8FAFC">±</text>
    
    <rect x="210" y="140" width="25" height="25" rx="3" fill="#334155"/>
    <text x="217" y="157" font-family="monospace" font-size="14" fill="#F8FAFC">%</text>
    
    <rect x="245" y="140" width="25" height="25" rx="3" fill="#7C3AED"/>
    <text x="252" y="157" font-family="monospace" font-size="14" fill="#F8FAFC">÷</text>
    
    <!-- Row 2 -->
    <rect x="140" y="175" width="25" height="25" rx="3" fill="#334155"/>
    <text x="147" y="192" font-family="monospace" font-size="14" fill="#F8FAFC">7</text>
    
    <rect x="175" y="175" width="25" height="25" rx="3" fill="#334155"/>
    <text x="182" y="192" font-family="monospace" font-size="14" fill="#F8FAFC">8</text>
    
    <rect x="210" y="175" width="25" height="25" rx="3" fill="#334155"/>
    <text x="217" y="192" font-family="monospace" font-size="14" fill="#F8FAFC">9</text>
    
    <rect x="245" y="175" width="25" height="25" rx="3" fill="#7C3AED"/>
    <text x="252" y="192" font-family="monospace" font-size="14" fill="#F8FAFC">×</text>
    
    <!-- Row 3 -->
    <rect x="140" y="210" width="25" height="25" rx="3" fill="#334155"/>
    <text x="147" y="227" font-family="monospace" font-size="14" fill="#F8FAFC">4</text>
    
    <rect x="175" y="210" width="25" height="25" rx="3" fill="#334155"/>
    <text x="182" y="227" font-family="monospace" font-size="14" fill="#F8FAFC">5</text>
    
    <rect x="210" y="210" width="25" height="25" rx="3" fill="#334155"/>
    <text x="217" y="227" font-family="monospace" font-size="14" fill="#F8FAFC">6</text>
    
    <rect x="245" y="210" width="25" height="25" rx="3" fill="#7C3AED"/>
    <text x="252" y="227" font-family="monospace" font-size="14" fill="#F8FAFC">-</text>
    
    <!-- Row 4 -->
    <rect x="140" y="245" width="25" height="25" rx="3" fill="#334155"/>
    <text x="147" y="262" font-family="monospace" font-size="14" fill="#F8FAFC">1</text>
    
    <rect x="175" y="245" width="25" height="25" rx="3" fill="#334155"/>
    <text x="182" y="262" font-family="monospace" font-size="14" fill="#F8FAFC">2</text>
    
    <rect x="210" y="245" width="25" height="25" rx="3" fill="#334155"/>
    <text x="217" y="262" font-family="monospace" font-size="14" fill="#F8FAFC">3</text>
    
    <rect x="245" y="245" width="25" height="25" rx="3" fill="#7C3AED"/>
    <text x="252" y="262" font-family="monospace" font-size="14" fill="#F8FAFC">+</text>
  </g>
  
  <!-- Documents -->
  <g transform="translate(40, 60) rotate(-10)">
    <rect width="100" height="130" rx="5" fill="#1E293B"/>
    <rect x="10" y="20" width="80" height="5" rx="2" fill="#475569"/>
    <rect x="10" y="35" width="60" height="5" rx="2" fill="#475569"/>
    <rect x="10" y="50" width="70" height="5" rx="2" fill="#475569"/>
    <rect x="10" y="65" width="50" height="5" rx="2" fill="#475569"/>
    <rect x="10" y="80" width="65" height="5" rx="2" fill="#475569"/>
    <rect x="60" y="100" width="30" height="20" rx="2" fill="#7C3AED" opacity="0.7"/>
  </g>
  
  <!-- Coins -->
  <circle cx="300" cy="220" r="15" fill="#EAB308" opacity="0.8"/>
  <circle cx="300" cy="220" r="10" fill="#1E293B"/>
  <text x="296" y="224" font-family="monospace" font-size="10" fill="#EAB308">€</text>
  
  <circle cx="320" cy="230" r="15" fill="#EAB308" opacity="0.8"/>
  <circle cx="320" cy="230" r="10" fill="#1E293B"/>
  <text x="316" y="234" font-family="monospace" font-size="10" fill="#EAB308">€</text>
  
  <circle cx="340" cy="220" r="15" fill="#EAB308" opacity="0.8"/>
  <circle cx="340" cy="220" r="10" fill="#1E293B"/>
  <text x="336" y="224" font-family="monospace" font-size="10" fill="#EAB308">€</text>
  
  <!-- Graph -->
  <g transform="translate(270, 80)">
    <rect width="90" height="70" rx="5" fill="#1E293B"/>
    <!-- Axes -->
    <line x1="10" y1="10" x2="10" y2="60" stroke="#475569" stroke-width="2"/>
    <line x1="10" y1="60" x2="80" y2="60" stroke="#475569" stroke-width="2"/>
    
    <!-- Graph line -->
    <polyline points="10,50 25,45 40,30 55,40 70,20" stroke="#A855F7" stroke-width="2" fill="none"/>
    <circle cx="10" cy="50" r="3" fill="#A855F7"/>
    <circle cx="25" cy="45" r="3" fill="#A855F7"/>
    <circle cx="40" cy="30" r="3" fill="#A855F7"/>
    <circle cx="55" cy="40" r="3" fill="#A855F7"/>
    <circle cx="70" cy="20" r="3" fill="#A855F7"/>
  </g>
  
  <!-- Decorative elements -->
  <circle cx="50" cy="50" r="5" fill="#A855F7" opacity="0.5"/>
  <circle cx="350" cy="70" r="7" fill="#A855F7" opacity="0.5"/>
  <circle cx="60" cy="250" r="6" fill="#A855F7" opacity="0.5"/>
  <circle cx="370" cy="180" r="4" fill="#A855F7" opacity="0.5"/>
  
  <!-- Sparkles -->
  <path d="M280 40 L283 45 L288 45 L284 50 L286 55 L280 52 L274 55 L276 50 L272 45 L277 45 Z" fill="#EAB308" opacity="0.8"/>
  <path d="M80 130 L82 133 L85 133 L83 136 L84 139 L80 137 L76 139 L77 136 L75 133 L78 133 Z" fill="#EAB308" opacity="0.8"/>
  <path d="M350 260 L352 263 L355 263 L353 266 L354 269 L350 267 L346 269 L347 266 L345 263 L348 263 Z" fill="#EAB308" opacity="0.8"/>
</svg>
